<svg width="764" height="288" viewBox="0 0 764 288" fill="none" xmlns="http://www.w3.org/2000/svg">
<path d="M10 73.2C10 47.3333 16.5334 28.6667 29.6001 17.2C42.6667 5.73332 63.8667 -1.52588e-05 93.2001 -1.52588e-05C113.733 -1.52588e-05 130.267 5.33332 142.8 16C155.333 26.6666 164.4 42.9333 170 64.8L132.8 92.8H113.2L156.4 60.4C150.8 42.5333 142.667 30 132 22.8C121.6 15.6 108.667 12 93.2001 12C82.5334 12 73.4667 12.6667 66.0001 14C58.8001 15.3333 51.4667 18 44 22C36.8001 25.7333 31.3334 31.8667 27.6001 40.4C23.8667 48.9333 22 59.8667 22 73.2C22 84.9333 27.3334 95.3333 38 104.4C48.9334 113.467 62.1334 121.2 77.6001 127.6C93.0667 134 108.533 140.533 124 147.2C139.733 153.867 152.933 162.4 163.6 172.8C174.533 183.2 180 195.2 180 208.8C180 235.467 173.333 255.333 160 268.4C146.933 281.467 124.4 288 92.4001 288C66.2667 288 45.7334 282.8 30.8001 272.4C15.8667 261.733 5.60005 245.333 5.00679e-05 223.2L11.2 218.4C16.5334 240 25.6001 255.067 38.4001 263.6C51.4667 271.867 69.4667 276 92.4001 276C118 276 136.933 271.067 149.2 261.2C161.733 251.333 168 233.867 168 208.8C168 197.067 162.533 186.667 151.6 177.6C140.933 168.533 127.733 160.8 112 154.4C96.5334 148 81.0667 141.467 65.6001 134.8C50.1334 128.133 36.9334 119.6 26.0001 109.2C15.3334 98.8 10 86.8 10 73.2ZM241.019 284V52H253.019V284H241.019ZM389.019 284L265.819 161.6L376.219 52H393.419L283.019 161.6L406.219 284H389.019ZM440.478 260.8H466.878V284H440.478V260.8Z" fill="#1C1C1C"/>
<path d="M557.531 272H687.931L605.931 78.8L518.731 284H505.931L605.931 48L705.931 284H557.531V272ZM751.566 52H763.566V284H751.566V52Z" fill="#85A780"/>
</svg>
